<mxfile host="app.diagrams.net" agent="Mozilla/5.0 (Windows NT 10.0; Win64; x64) AppleWebKit/537.36 (KHTML, like Gecko) Chrome/135.0.0.0 Safari/537.36" version="27.0.1">
  <diagram name="Page-1" id="CRJQIBzbdJMBaGQ8NePq">
    <mxGraphModel>
      <root>
        <mxCell id="0" />
        <mxCell id="1" parent="0" />
        <mxCell id="2" value="User" style="whiteSpace=wrap;strokeWidth=2;" vertex="1" parent="1">
          <mxGeometry x="196" y="8" width="92" height="54" as="geometry" />
        </mxCell>
        <mxCell id="3" value="Authentication System" style="whiteSpace=wrap;strokeWidth=2;" vertex="1" parent="1">
          <mxGeometry x="131" y="134" width="221" height="54" as="geometry" />
        </mxCell>
        <mxCell id="4" value="Main Platform" style="whiteSpace=wrap;strokeWidth=2;" vertex="1" parent="1">
          <mxGeometry x="162" y="261" width="160" height="54" as="geometry" />
        </mxCell>
        <mxCell id="5" value="Forum" style="whiteSpace=wrap;strokeWidth=2;" vertex="1" parent="1">
          <mxGeometry x="79" y="514" width="105" height="54" as="geometry" />
        </mxCell>
        <mxCell id="6" value="Search Option" style="whiteSpace=wrap;strokeWidth=2;" vertex="1" parent="1">
          <mxGeometry x="235" y="387" width="160" height="54" as="geometry" />
        </mxCell>
        <mxCell id="7" value="Profile Management" style="whiteSpace=wrap;strokeWidth=2;" vertex="1" parent="1">
          <mxGeometry x="506" y="514" width="202" height="54" as="geometry" />
        </mxCell>
        <mxCell id="8" value="Discussion Thread" style="whiteSpace=wrap;strokeWidth=2;" vertex="1" parent="1">
          <mxGeometry x="38" y="640" width="187" height="54" as="geometry" />
        </mxCell>
        <mxCell id="9" value="Available Topics" style="whiteSpace=wrap;strokeWidth=2;" vertex="1" parent="1">
          <mxGeometry x="312" y="640" width="173" height="54" as="geometry" />
        </mxCell>
        <mxCell id="10" value="Database" style="whiteSpace=wrap;strokeWidth=2;" vertex="1" parent="1">
          <mxGeometry x="261" y="766" width="126" height="54" as="geometry" />
        </mxCell>
        <mxCell id="11" value="Search Results" style="whiteSpace=wrap;strokeWidth=2;" vertex="1" parent="1">
          <mxGeometry x="234" y="514" width="163" height="54" as="geometry" />
        </mxCell>
        <mxCell id="12" value="User Profile" style="whiteSpace=wrap;strokeWidth=2;" vertex="1" parent="1">
          <mxGeometry x="535" y="640" width="144" height="54" as="geometry" />
        </mxCell>
        <mxCell id="13" value="Login" style="curved=1;startArrow=none;endArrow=block;exitX=0.5;exitY=1;entryX=0.5;entryY=0.01;" edge="1" parent="1" source="2" target="3">
          <mxGeometry relative="1" as="geometry">
            <Array as="points" />
          </mxGeometry>
        </mxCell>
        <mxCell id="14" value="Authenticated" style="curved=1;startArrow=none;endArrow=block;exitX=0.5;exitY=1.01;entryX=0.5;entryY=0;" edge="1" parent="1" source="3" target="4">
          <mxGeometry relative="1" as="geometry">
            <Array as="points" />
          </mxGeometry>
        </mxCell>
        <mxCell id="15" value="Access" style="curved=1;startArrow=none;endArrow=block;exitX=0.21;exitY=1;entryX=0.5;entryY=-0.01;" edge="1" parent="1" source="4" target="5">
          <mxGeometry relative="1" as="geometry">
            <Array as="points">
              <mxPoint x="132" y="351" />
            </Array>
          </mxGeometry>
        </mxCell>
        <mxCell id="16" value="Access" style="curved=1;startArrow=none;endArrow=block;exitX=0.7;exitY=1;entryX=0.5;entryY=0;" edge="1" parent="1" source="4" target="6">
          <mxGeometry relative="1" as="geometry">
            <Array as="points">
              <mxPoint x="316" y="351" />
            </Array>
          </mxGeometry>
        </mxCell>
        <mxCell id="17" value="Access" style="curved=1;startArrow=none;endArrow=block;exitX=1;exitY=0.75;entryX=0.5;entryY=-0.01;" edge="1" parent="1" source="4" target="7">
          <mxGeometry relative="1" as="geometry">
            <Array as="points">
              <mxPoint x="607" y="351" />
            </Array>
          </mxGeometry>
        </mxCell>
        <mxCell id="18" value="Create/Reply" style="curved=1;startArrow=none;endArrow=block;exitX=0.2;exitY=0.99;entryX=0.33;entryY=0;" edge="1" parent="1" source="5" target="8">
          <mxGeometry relative="1" as="geometry">
            <Array as="points">
              <mxPoint x="58" y="604" />
            </Array>
          </mxGeometry>
        </mxCell>
        <mxCell id="19" value="List Topics" style="curved=1;startArrow=none;endArrow=block;exitX=1;exitY=0.72;entryX=0.5;entryY=0;" edge="1" parent="1" source="5" target="9">
          <mxGeometry relative="1" as="geometry">
            <Array as="points">
              <mxPoint x="399" y="604" />
            </Array>
          </mxGeometry>
        </mxCell>
        <mxCell id="20" value="Post" style="curved=1;startArrow=none;endArrow=block;exitX=0.48;exitY=1;entryX=0;entryY=0.14;" edge="1" parent="1" source="8" target="10">
          <mxGeometry relative="1" as="geometry">
            <Array as="points">
              <mxPoint x="121" y="730" />
            </Array>
          </mxGeometry>
        </mxCell>
        <mxCell id="21" value="Reply" style="curved=1;startArrow=none;endArrow=block;exitX=0.98;exitY=1;entryX=0.56;entryY=0.01;" edge="1" parent="1" source="8" target="10">
          <mxGeometry relative="1" as="geometry">
            <Array as="points">
              <mxPoint x="342" y="730" />
            </Array>
          </mxGeometry>
        </mxCell>
        <mxCell id="22" value="Search" style="curved=1;startArrow=none;endArrow=block;exitX=0.5;exitY=1;entryX=0.5;entryY=-0.01;" edge="1" parent="1" source="6" target="11">
          <mxGeometry relative="1" as="geometry">
            <Array as="points" />
          </mxGeometry>
        </mxCell>
        <mxCell id="23" value="Select" style="curved=1;startArrow=none;endArrow=block;exitX=0.31;exitY=0.99;entryX=0.75;entryY=0;" edge="1" parent="1" source="11" target="8">
          <mxGeometry relative="1" as="geometry">
            <Array as="points">
              <mxPoint x="242" y="604" />
            </Array>
          </mxGeometry>
        </mxCell>
        <mxCell id="24" value="Update" style="curved=1;startArrow=none;endArrow=block;exitX=0.5;exitY=0.99;entryX=0.5;entryY=0;" edge="1" parent="1" source="7" target="12">
          <mxGeometry relative="1" as="geometry">
            <Array as="points" />
          </mxGeometry>
        </mxCell>
        <mxCell id="25" value="Save Changes" style="curved=1;startArrow=none;endArrow=block;exitX=0.5;exitY=1;entryX=0.99;entryY=0.25;" edge="1" parent="1" source="12" target="10">
          <mxGeometry relative="1" as="geometry">
            <Array as="points">
              <mxPoint x="607" y="730" />
            </Array>
          </mxGeometry>
        </mxCell>
      </root>
    </mxGraphModel>
  </diagram>
</mxfile>
